<svg width="38" height="46" viewBox="0 0 38 46" fill="none" xmlns="http://www.w3.org/2000/svg">
<path d="M4.45459 43V34.2727H5.77135V38.0653H10.1222V34.2727H11.4432V43H10.1222V39.1946H5.77135V43H4.45459ZM15.8357 43.1321C15.222 43.1321 14.6865 42.9915 14.2291 42.7102C13.7717 42.429 13.4166 42.0355 13.1638 41.5298C12.911 41.0241 12.7845 40.4332 12.7845 39.7571C12.7845 39.0781 12.911 38.4844 13.1638 37.9759C13.4166 37.4673 13.7717 37.0724 14.2291 36.7912C14.6865 36.5099 15.222 36.3693 15.8357 36.3693C16.4493 36.3693 16.9848 36.5099 17.4422 36.7912C17.8996 37.0724 18.2547 37.4673 18.5075 37.9759C18.7604 38.4844 18.8868 39.0781 18.8868 39.7571C18.8868 40.4332 18.7604 41.0241 18.5075 41.5298C18.2547 42.0355 17.8996 42.429 17.4422 42.7102C16.9848 42.9915 16.4493 43.1321 15.8357 43.1321ZM15.8399 42.0625C16.2377 42.0625 16.5672 41.9574 16.8286 41.7472C17.0899 41.5369 17.2831 41.2571 17.4081 40.9077C17.536 40.5582 17.5999 40.1733 17.5999 39.7528C17.5999 39.3352 17.536 38.9517 17.4081 38.6023C17.2831 38.25 17.0899 37.9673 16.8286 37.7543C16.5672 37.5412 16.2377 37.4347 15.8399 37.4347C15.4394 37.4347 15.107 37.5412 14.8428 37.7543C14.5814 37.9673 14.3868 38.25 14.259 38.6023C14.134 38.9517 14.0715 39.3352 14.0715 39.7528C14.0715 40.1733 14.134 40.5582 14.259 40.9077C14.3868 41.2571 14.5814 41.5369 14.8428 41.7472C15.107 41.9574 15.4394 42.0625 15.8399 42.0625ZM20.129 43V36.4545H21.352V37.5199H21.433C21.5694 37.1591 21.7924 36.8778 22.102 36.6761C22.4117 36.4716 22.7824 36.3693 23.2143 36.3693C23.6518 36.3693 24.0182 36.4716 24.3137 36.6761C24.612 36.8807 24.8322 37.1619 24.9742 37.5199H25.0424C25.1986 37.1705 25.4472 36.892 25.7881 36.6847C26.129 36.4744 26.5353 36.3693 27.0069 36.3693C27.6006 36.3693 28.085 36.5554 28.46 36.9276C28.8378 37.2997 29.0268 37.8608 29.0268 38.6108V43H27.7526V38.7301C27.7526 38.2869 27.6319 37.9659 27.3904 37.767C27.1489 37.5682 26.8606 37.4688 26.5253 37.4688C26.1106 37.4688 25.7881 37.5966 25.558 37.8523C25.3279 38.1051 25.2128 38.4304 25.2128 38.8281V43H23.943V38.6491C23.943 38.294 23.8322 38.0085 23.6106 37.7926C23.389 37.5767 23.1006 37.4688 22.7455 37.4688C22.504 37.4688 22.281 37.5327 22.0765 37.6605C21.8748 37.7855 21.7114 37.9602 21.5864 38.1847C21.4643 38.4091 21.4032 38.669 21.4032 38.9645V43H20.129ZM33.3755 43.1321C32.7306 43.1321 32.1752 42.9943 31.7093 42.7188C31.2463 42.4403 30.8883 42.0497 30.6355 41.5469C30.3855 41.0412 30.2605 40.4489 30.2605 39.7699C30.2605 39.0994 30.3855 38.5085 30.6355 37.9972C30.8883 37.4858 31.2406 37.0866 31.6923 36.7997C32.1468 36.5128 32.6781 36.3693 33.286 36.3693C33.6554 36.3693 34.0133 36.4304 34.3599 36.5526C34.7065 36.6747 35.0176 36.8665 35.2931 37.1278C35.5687 37.3892 35.786 37.7287 35.9451 38.1463C36.1042 38.5611 36.1838 39.0653 36.1838 39.6591V40.1108H30.9806V39.1562H34.9352C34.9352 38.821 34.867 38.5241 34.7306 38.2656C34.5943 38.0043 34.4025 37.7983 34.1554 37.6477C33.911 37.4972 33.6241 37.4219 33.2946 37.4219C32.9366 37.4219 32.6241 37.5099 32.3571 37.6861C32.0929 37.8594 31.8883 38.0866 31.7434 38.3679C31.6014 38.6463 31.5304 38.9489 31.5304 39.2756V40.0213C31.5304 40.4588 31.6071 40.831 31.7605 41.1378C31.9167 41.4446 32.134 41.679 32.4125 41.8409C32.6909 42 33.0162 42.0795 33.3883 42.0795C33.6298 42.0795 33.85 42.0455 34.0488 41.9773C34.2477 41.9062 34.4196 41.8011 34.5644 41.6619C34.7093 41.5227 34.8201 41.3509 34.8968 41.1463L36.1028 41.3636C36.0062 41.7187 35.8329 42.0298 35.5829 42.2969C35.3358 42.5611 35.0247 42.767 34.6497 42.9148C34.2775 43.0597 33.8528 43.1321 33.3755 43.1321Z" fill="#256EEE"/>
<path d="M27.8333 22.1667V12.25C27.8333 12.0689 27.7912 11.8903 27.7102 11.7283C27.6292 11.5663 27.5116 11.4253 27.3667 11.3167L19.2 5.19168C18.9981 5.04022 18.7524 4.95834 18.5 4.95834C18.2476 4.95834 18.0019 5.04022 17.8 5.19168L9.63334 11.3167C9.48844 11.4253 9.37084 11.5663 9.28984 11.7283C9.20884 11.8903 9.16667 12.0689 9.16667 12.25V22.1667C9.16667 22.4761 9.28959 22.7728 9.50838 22.9916C9.72717 23.2104 10.0239 23.3333 10.3333 23.3333H15C15.3094 23.3333 15.6062 23.2104 15.825 22.9916C16.0438 22.7728 16.1667 22.4761 16.1667 22.1667V18.6667C16.1667 18.3573 16.2896 18.0605 16.5084 17.8417C16.7272 17.6229 17.0239 17.5 17.3333 17.5H19.6667C19.9761 17.5 20.2728 17.6229 20.4916 17.8417C20.7104 18.0605 20.8333 18.3573 20.8333 18.6667V22.1667C20.8333 22.4761 20.9563 22.7728 21.175 22.9916C21.3938 23.2104 21.6906 23.3333 22 23.3333H26.6667C26.9761 23.3333 27.2728 23.2104 27.4916 22.9916C27.7104 22.7728 27.8333 22.4761 27.8333 22.1667Z" stroke="#256EEE" stroke-width="2" stroke-linecap="round" stroke-linejoin="round"/>
</svg>
