<svg width="65" height="40" viewBox="0 0 65 40" fill="none" xmlns="http://www.w3.org/2000/svg">
<path d="M8.00284 28.2727V37H6.79261L2.35653 30.5994H2.27557V37H0.958807V28.2727H2.17756L6.6179 34.6818H6.69886V28.2727H8.00284ZM12.3985 37.1321C11.7848 37.1321 11.2493 36.9915 10.7919 36.7102C10.3346 36.429 9.97945 36.0355 9.7266 35.5298C9.47376 35.0241 9.34734 34.4332 9.34734 33.7571C9.34734 33.0781 9.47376 32.4844 9.7266 31.9759C9.97945 31.4673 10.3346 31.0724 10.7919 30.7912C11.2493 30.5099 11.7848 30.3693 12.3985 30.3693C13.0121 30.3693 13.5476 30.5099 14.005 30.7912C14.4624 31.0724 14.8175 31.4673 15.0704 31.9759C15.3232 32.4844 15.4496 33.0781 15.4496 33.7571C15.4496 34.4332 15.3232 35.0241 15.0704 35.5298C14.8175 36.0355 14.4624 36.429 14.005 36.7102C13.5476 36.9915 13.0121 37.1321 12.3985 37.1321ZM12.4027 36.0625C12.8005 36.0625 13.13 35.9574 13.3914 35.7472C13.6527 35.5369 13.8459 35.2571 13.9709 34.9077C14.0988 34.5582 14.1627 34.1733 14.1627 33.7528C14.1627 33.3352 14.0988 32.9517 13.9709 32.6023C13.8459 32.25 13.6527 31.9673 13.3914 31.7543C13.13 31.5412 12.8005 31.4347 12.4027 31.4347C12.0022 31.4347 11.6698 31.5412 11.4056 31.7543C11.1442 31.9673 10.9496 32.25 10.8218 32.6023C10.6968 32.9517 10.6343 33.3352 10.6343 33.7528C10.6343 34.1733 10.6968 34.5582 10.8218 34.9077C10.9496 35.2571 11.1442 35.5369 11.4056 35.7472C11.6698 35.9574 12.0022 36.0625 12.4027 36.0625ZM19.7472 30.4545V31.4773H16.172V30.4545H19.7472ZM17.1308 28.8864H18.4049V35.0781C18.4049 35.3253 18.4418 35.5114 18.5157 35.6364C18.5896 35.7585 18.6847 35.8423 18.8012 35.8878C18.9205 35.9304 19.0498 35.9517 19.189 35.9517C19.2913 35.9517 19.3808 35.9446 19.4575 35.9304C19.5342 35.9162 19.5938 35.9048 19.6364 35.8963L19.8666 36.9489C19.7927 36.9773 19.6876 37.0057 19.5512 37.0341C19.4149 37.0653 19.2444 37.0824 19.0399 37.0852C18.7046 37.0909 18.3921 37.0312 18.1024 36.9062C17.8126 36.7812 17.5782 36.5881 17.3992 36.3267C17.2203 36.0653 17.1308 35.7372 17.1308 35.3423V28.8864ZM20.9767 37V30.4545H22.2508V37H20.9767ZM21.6202 29.4446C21.3986 29.4446 21.2082 29.3707 21.0491 29.223C20.8929 29.0724 20.8148 28.8935 20.8148 28.6861C20.8148 28.4759 20.8929 28.2969 21.0491 28.1491C21.2082 27.9986 21.3986 27.9233 21.6202 27.9233C21.8417 27.9233 22.0307 27.9986 22.1869 28.1491C22.346 28.2969 22.4256 28.4759 22.4256 28.6861C22.4256 28.8935 22.346 29.0724 22.1869 29.223C22.0307 29.3707 21.8417 29.4446 21.6202 29.4446ZM26.9 30.4545V31.4773H23.2012V30.4545H26.9ZM24.2154 37V29.696C24.2154 29.2869 24.3049 28.9474 24.4838 28.6776C24.6628 28.4048 24.9 28.2017 25.1955 28.0682C25.4909 27.9318 25.812 27.8636 26.1586 27.8636C26.4142 27.8636 26.633 27.8849 26.8148 27.9276C26.9966 27.9673 27.1316 28.0043 27.2196 28.0384L26.9213 29.0696C26.8617 29.0526 26.785 29.0327 26.6912 29.0099C26.5975 28.9844 26.4838 28.9716 26.3503 28.9716C26.0407 28.9716 25.8191 29.0483 25.6855 29.2017C25.5549 29.3551 25.4895 29.5767 25.4895 29.8665V37H24.2154ZM28.0347 37V30.4545H29.3088V37H28.0347ZM28.6781 29.4446C28.4565 29.4446 28.2662 29.3707 28.1071 29.223C27.9509 29.0724 27.8727 28.8935 27.8727 28.6861C27.8727 28.4759 27.9509 28.2969 28.1071 28.1491C28.2662 27.9986 28.4565 27.9233 28.6781 27.9233C28.8997 27.9233 29.0886 27.9986 29.2449 28.1491C29.404 28.2969 29.4835 28.4759 29.4835 28.6861C29.4835 28.8935 29.404 29.0724 29.2449 29.223C29.0886 29.3707 28.8997 29.4446 28.6781 29.4446ZM33.6 37.1321C32.9665 37.1321 32.4211 36.9886 31.9637 36.7017C31.5091 36.4119 31.1597 36.0128 30.9154 35.5043C30.6711 34.9957 30.5489 34.4134 30.5489 33.7571C30.5489 33.0923 30.6739 32.5057 30.9239 31.9972C31.1739 31.4858 31.5262 31.0866 31.9807 30.7997C32.4353 30.5128 32.9708 30.3693 33.5873 30.3693C34.0844 30.3693 34.5276 30.4616 34.9168 30.6463C35.306 30.8281 35.6199 31.0838 35.8586 31.4134C36.1 31.7429 36.2435 32.1278 36.289 32.5682H35.0489C34.9807 32.2614 34.8245 31.9972 34.5802 31.7756C34.3387 31.554 34.0148 31.4432 33.6086 31.4432C33.2535 31.4432 32.9424 31.5369 32.6753 31.7244C32.4111 31.9091 32.2052 32.1733 32.0574 32.517C31.9097 32.858 31.8358 33.2614 31.8358 33.7273C31.8358 34.2045 31.9083 34.6165 32.0532 34.9631C32.1981 35.3097 32.4026 35.5781 32.6668 35.7685C32.9338 35.9588 33.2478 36.054 33.6086 36.054C33.85 36.054 34.0688 36.0099 34.2648 35.9219C34.4637 35.831 34.6299 35.7017 34.7634 35.5341C34.8998 35.3665 34.9949 35.1648 35.0489 34.929H36.289C36.2435 35.3523 36.1057 35.7301 35.8756 36.0625C35.6455 36.3949 35.3373 36.6562 34.9509 36.8466C34.5674 37.0369 34.1171 37.1321 33.6 37.1321ZM39.3764 37.1449C38.9616 37.1449 38.5866 37.0682 38.2514 36.9148C37.9161 36.7585 37.6505 36.5327 37.4545 36.2372C37.2613 35.9418 37.1647 35.5795 37.1647 35.1506C37.1647 34.7812 37.2357 34.4773 37.3778 34.2386C37.5198 34 37.7116 33.8111 37.9531 33.6719C38.1945 33.5327 38.4644 33.4276 38.7627 33.3565C39.061 33.2855 39.365 33.2315 39.6747 33.1946C40.0667 33.1491 40.3849 33.1122 40.6292 33.0838C40.8735 33.0526 41.0511 33.0028 41.1619 32.9347C41.2727 32.8665 41.3281 32.7557 41.3281 32.6023V32.5724C41.3281 32.2003 41.223 31.9119 41.0127 31.7074C40.8053 31.5028 40.4957 31.4006 40.0838 31.4006C39.6548 31.4006 39.3167 31.4957 39.0695 31.6861C38.8252 31.8736 38.6562 32.0824 38.5624 32.3125L37.365 32.0398C37.507 31.642 37.7144 31.321 37.9872 31.0767C38.2627 30.8295 38.5795 30.6506 38.9374 30.5398C39.2954 30.4261 39.6718 30.3693 40.0667 30.3693C40.3281 30.3693 40.6051 30.4006 40.8977 30.4631C41.1931 30.5227 41.4687 30.6335 41.7244 30.7955C41.9829 30.9574 42.1945 31.1889 42.3593 31.4901C42.5241 31.7884 42.6065 32.1761 42.6065 32.6534V37H41.3622V36.1051H41.311C41.2286 36.2699 41.1051 36.4318 40.9403 36.5909C40.7755 36.75 40.5639 36.8821 40.3053 36.9872C40.0468 37.0923 39.7372 37.1449 39.3764 37.1449ZM39.6534 36.1222C40.0056 36.1222 40.3068 36.0526 40.5568 35.9134C40.8096 35.7741 41.0014 35.5923 41.132 35.3679C41.2656 35.1406 41.3323 34.8977 41.3323 34.6392V33.7955C41.2869 33.8409 41.1988 33.8835 41.0681 33.9233C40.9403 33.9602 40.794 33.9929 40.6292 34.0213C40.4644 34.0469 40.3039 34.071 40.1477 34.0938C39.9914 34.1136 39.8607 34.1307 39.7556 34.1449C39.5085 34.1761 39.2826 34.2287 39.0781 34.3026C38.8764 34.3764 38.7144 34.483 38.5923 34.6222C38.473 34.7585 38.4133 34.9403 38.4133 35.1676C38.4133 35.483 38.5298 35.7216 38.7627 35.8835C38.9957 36.0426 39.2926 36.1222 39.6534 36.1222ZM47.179 30.4545V31.4773H43.6037V30.4545H47.179ZM44.5625 28.8864H45.8366V35.0781C45.8366 35.3253 45.8736 35.5114 45.9474 35.6364C46.0213 35.7585 46.1165 35.8423 46.2329 35.8878C46.3523 35.9304 46.4815 35.9517 46.6207 35.9517C46.723 35.9517 46.8125 35.9446 46.8892 35.9304C46.9659 35.9162 47.0256 35.9048 47.0682 35.8963L47.2983 36.9489C47.2244 36.9773 47.1193 37.0057 46.9829 37.0341C46.8466 37.0653 46.6761 37.0824 46.4716 37.0852C46.1364 37.0909 45.8239 37.0312 45.5341 36.9062C45.2443 36.7812 45.0099 36.5881 44.831 36.3267C44.652 36.0653 44.5625 35.7372 44.5625 35.3423V28.8864ZM48.4084 37V30.4545H49.6826V37H48.4084ZM49.0519 29.4446C48.8303 29.4446 48.6399 29.3707 48.4809 29.223C48.3246 29.0724 48.2465 28.8935 48.2465 28.6861C48.2465 28.4759 48.3246 28.2969 48.4809 28.1491C48.6399 27.9986 48.8303 27.9233 49.0519 27.9233C49.2735 27.9233 49.4624 27.9986 49.6186 28.1491C49.7777 28.2969 49.8573 28.4759 49.8573 28.6861C49.8573 28.8935 49.7777 29.0724 49.6186 29.223C49.4624 29.3707 49.2735 29.4446 49.0519 29.4446ZM53.9738 37.1321C53.3602 37.1321 52.8246 36.9915 52.3673 36.7102C51.9099 36.429 51.5548 36.0355 51.3019 35.5298C51.0491 35.0241 50.9227 34.4332 50.9227 33.7571C50.9227 33.0781 51.0491 32.4844 51.3019 31.9759C51.5548 31.4673 51.9099 31.0724 52.3673 30.7912C52.8246 30.5099 53.3602 30.3693 53.9738 30.3693C54.5874 30.3693 55.1229 30.5099 55.5803 30.7912C56.0377 31.0724 56.3928 31.4673 56.6457 31.9759C56.8985 32.4844 57.0249 33.0781 57.0249 33.7571C57.0249 34.4332 56.8985 35.0241 56.6457 35.5298C56.3928 36.0355 56.0377 36.429 55.5803 36.7102C55.1229 36.9915 54.5874 37.1321 53.9738 37.1321ZM53.9781 36.0625C54.3758 36.0625 54.7053 35.9574 54.9667 35.7472C55.2281 35.5369 55.4212 35.2571 55.5462 34.9077C55.6741 34.5582 55.738 34.1733 55.738 33.7528C55.738 33.3352 55.6741 32.9517 55.5462 32.6023C55.4212 32.25 55.2281 31.9673 54.9667 31.7543C54.7053 31.5412 54.3758 31.4347 53.9781 31.4347C53.5775 31.4347 53.2451 31.5412 52.9809 31.7543C52.7195 31.9673 52.5249 32.25 52.3971 32.6023C52.2721 32.9517 52.2096 33.3352 52.2096 33.7528C52.2096 34.1733 52.2721 34.5582 52.3971 34.9077C52.5249 35.2571 52.7195 35.5369 52.9809 35.7472C53.2451 35.9574 53.5775 36.0625 53.9781 36.0625ZM59.5413 33.1136V37H58.2672V30.4545H59.4902V31.5199H59.5711C59.7217 31.1733 59.9575 30.8949 60.2785 30.6847C60.6024 30.4744 61.0101 30.3693 61.5015 30.3693C61.9476 30.3693 62.3382 30.4631 62.6734 30.6506C63.0086 30.8352 63.2686 31.1108 63.4532 31.4773C63.6379 31.8437 63.7302 32.2969 63.7302 32.8366V37H62.4561V32.9901C62.4561 32.5156 62.3325 32.1449 62.0853 31.8778C61.8382 31.608 61.4987 31.473 61.0669 31.473C60.7714 31.473 60.5086 31.5369 60.2785 31.6648C60.0513 31.7926 59.8709 31.9801 59.7373 32.2273C59.6066 32.4716 59.5413 32.767 59.5413 33.1136Z" fill="#A9A9A9"/>
<path d="M39 17V18H21V17L23 15V9C23 5.9 25.03 3.17 28 2.29V2C28 1.46957 28.2107 0.960859 28.5858 0.585786C28.9609 0.210714 29.4696 0 30 0C30.5304 0 31.0391 0.210714 31.4142 0.585786C31.7893 0.960859 32 1.46957 32 2V2.29C34.97 3.17 37 5.9 37 9V15L39 17ZM32 19C32 19.5304 31.7893 20.0391 31.4142 20.4142C31.0391 20.7893 30.5304 21 30 21C29.4696 21 28.9609 20.7893 28.5858 20.4142C28.2107 20.0391 28 19.5304 28 19" fill="#A9A9A9"/>
</svg>
