<svg width="28" height="38" viewBox="0 0 28 38" fill="none" xmlns="http://www.w3.org/2000/svg">
<path d="M0.958807 35V26.2727H6.37074V27.4062H2.27557V30.0653H5.98295V31.1946H2.27557V35H0.958807ZM10.0483 35.1321C9.40345 35.1321 8.84805 34.9943 8.38215 34.7188C7.91908 34.4403 7.56112 34.0497 7.30828 33.5469C7.05828 33.0412 6.93328 32.4489 6.93328 31.7699C6.93328 31.0994 7.05828 30.5085 7.30828 29.9972C7.56112 29.4858 7.9134 29.0866 8.3651 28.7997C8.81965 28.5128 9.3509 28.3693 9.95885 28.3693C10.3282 28.3693 10.6861 28.4304 11.0327 28.5526C11.3793 28.6747 11.6904 28.8665 11.966 29.1278C12.2415 29.3892 12.4588 29.7287 12.6179 30.1463C12.777 30.5611 12.8566 31.0653 12.8566 31.6591V32.1108H7.65345V31.1562H11.608C11.608 30.821 11.5398 30.5241 11.4035 30.2656C11.2671 30.0043 11.0753 29.7983 10.8282 29.6477C10.5838 29.4972 10.2969 29.4219 9.96737 29.4219C9.60942 29.4219 9.29692 29.5099 9.02987 29.6861C8.76567 29.8594 8.56112 30.0866 8.41624 30.3679C8.27419 30.6463 8.20317 30.9489 8.20317 31.2756V32.0213C8.20317 32.4588 8.27987 32.831 8.43328 33.1378C8.58953 33.4446 8.80686 33.679 9.08527 33.8409C9.36368 34 9.68896 34.0795 10.0611 34.0795C10.3026 34.0795 10.5228 34.0455 10.7216 33.9773C10.9205 33.9062 11.0924 33.8011 11.2373 33.6619C11.3821 33.5227 11.4929 33.3509 11.5696 33.1463L12.7756 33.3636C12.679 33.7187 12.5057 34.0298 12.2557 34.2969C12.0086 34.5611 11.6975 34.767 11.3225 34.9148C10.9503 35.0597 10.5256 35.1321 10.0483 35.1321ZM16.9113 35.1321C16.2664 35.1321 15.711 34.9943 15.2451 34.7188C14.782 34.4403 14.4241 34.0497 14.1713 33.5469C13.9213 33.0412 13.7963 32.4489 13.7963 31.7699C13.7963 31.0994 13.9213 30.5085 14.1713 29.9972C14.4241 29.4858 14.7764 29.0866 15.2281 28.7997C15.6826 28.5128 16.2139 28.3693 16.8218 28.3693C17.1911 28.3693 17.5491 28.4304 17.8957 28.5526C18.2423 28.6747 18.5534 28.8665 18.8289 29.1278C19.1045 29.3892 19.3218 29.7287 19.4809 30.1463C19.64 30.5611 19.7195 31.0653 19.7195 31.6591V32.1108H14.5164V31.1562H18.471C18.471 30.821 18.4028 30.5241 18.2664 30.2656C18.1301 30.0043 17.9383 29.7983 17.6911 29.6477C17.4468 29.4972 17.1599 29.4219 16.8303 29.4219C16.4724 29.4219 16.1599 29.5099 15.8928 29.6861C15.6286 29.8594 15.4241 30.0866 15.2792 30.3679C15.1372 30.6463 15.0661 30.9489 15.0661 31.2756V32.0213C15.0661 32.4588 15.1428 32.831 15.2963 33.1378C15.4525 33.4446 15.6698 33.679 15.9482 33.8409C16.2266 34 16.5519 34.0795 16.9241 34.0795C17.1656 34.0795 17.3857 34.0455 17.5846 33.9773C17.7835 33.9062 17.9553 33.8011 18.1002 33.6619C18.2451 33.5227 18.3559 33.3509 18.4326 33.1463L19.6386 33.3636C19.542 33.7187 19.3687 34.0298 19.1187 34.2969C18.8715 34.5611 18.5605 34.767 18.1855 34.9148C17.8133 35.0597 17.3886 35.1321 16.9113 35.1321ZM23.4035 35.1278C22.8751 35.1278 22.4035 34.9929 21.9888 34.723C21.5768 34.4503 21.253 34.0625 21.0172 33.5597C20.7842 33.054 20.6677 32.4474 20.6677 31.7401C20.6677 31.0327 20.7856 30.4276 21.0214 29.9247C21.2601 29.4219 21.5868 29.0369 22.0015 28.7699C22.4163 28.5028 22.8865 28.3693 23.4121 28.3693C23.8183 28.3693 24.145 28.4375 24.3922 28.5739C24.6422 28.7074 24.8354 28.8636 24.9717 29.0426C25.1109 29.2216 25.2189 29.3793 25.2956 29.5156H25.3723V26.2727H26.6464V35H25.4021V33.9815H25.2956C25.2189 34.1207 25.1081 34.2798 24.9632 34.4588C24.8211 34.6378 24.6251 34.794 24.3751 34.9276C24.1251 35.0611 23.8013 35.1278 23.4035 35.1278ZM23.6848 34.0412C24.0513 34.0412 24.3609 33.9446 24.6138 33.7514C24.8694 33.5554 25.0626 33.2841 25.1933 32.9375C25.3268 32.5909 25.3936 32.1875 25.3936 31.7273C25.3936 31.2727 25.3283 30.875 25.1976 30.5341C25.0669 30.1932 24.8751 29.9276 24.6223 29.7372C24.3694 29.5469 24.0569 29.4517 23.6848 29.4517C23.3013 29.4517 22.9817 29.5511 22.726 29.75C22.4703 29.9489 22.2771 30.2202 22.1464 30.5639C22.0186 30.9077 21.9547 31.2955 21.9547 31.7273C21.9547 32.1648 22.02 32.5582 22.1507 32.9077C22.2814 33.2571 22.4746 33.5341 22.7302 33.7386C22.9888 33.9403 23.3069 34.0412 23.6848 34.0412Z" fill="#A9A9A9"/>
<path d="M5 0V3.41958C13.4946 3.41958 20.3821 10.3071 20.3821 18.8017H23.8017C23.8017 8.42208 15.3796 0 5 0ZM5 6.83917V10.2587C9.7125 10.2587 13.5429 14.0892 13.5429 18.8017H16.9625C16.9625 12.1921 11.6096 6.83917 5 6.83917Z" fill="#A9A9A9"/>
</svg>
