<svg width="62" height="45" viewBox="0 0 62 45" fill="none" xmlns="http://www.w3.org/2000/svg">
<path d="M1.45881 33.2727H3.05682L5.83523 40.0568H5.9375L8.71591 33.2727H10.3139V42H9.06108V35.6847H8.98011L6.40625 41.9872H5.36648L2.79261 35.6804H2.71165V42H1.45881V33.2727ZM12.7515 44.4545C12.5611 44.4545 12.3878 44.4389 12.2316 44.4077C12.0753 44.3793 11.9588 44.348 11.8821 44.3139L12.189 43.2699C12.4219 43.3324 12.6293 43.3594 12.8111 43.3509C12.9929 43.3423 13.1535 43.2741 13.2927 43.1463C13.4347 43.0185 13.5597 42.8097 13.6677 42.5199L13.8253 42.0852L11.4304 35.4545H12.7941L14.4517 40.5341H14.5199L16.1776 35.4545H17.5455L14.8481 42.8736C14.7231 43.2145 14.564 43.5028 14.3708 43.7386C14.1776 43.9773 13.9475 44.1563 13.6804 44.2756C13.4134 44.3949 13.1037 44.4545 12.7515 44.4545ZM28.9096 36.1108H27.58C27.5289 35.8267 27.4337 35.5767 27.2945 35.3608C27.1553 35.1449 26.9849 34.9616 26.7832 34.8111C26.5814 34.6605 26.3556 34.5469 26.1056 34.4702C25.8584 34.3935 25.5957 34.3551 25.3172 34.3551C24.8144 34.3551 24.3641 34.4815 23.9664 34.7344C23.5715 34.9872 23.259 35.358 23.0289 35.8466C22.8016 36.3352 22.688 36.9318 22.688 37.6364C22.688 38.3466 22.8016 38.946 23.0289 39.4347C23.259 39.9233 23.5729 40.2926 23.9707 40.5426C24.3684 40.7926 24.8158 40.9176 25.313 40.9176C25.5886 40.9176 25.8499 40.8807 26.0971 40.8068C26.3471 40.7301 26.5729 40.6179 26.7746 40.4702C26.9763 40.3224 27.1468 40.142 27.286 39.929C27.428 39.7131 27.5261 39.4659 27.58 39.1875L28.9096 39.1918C28.8386 39.6207 28.7008 40.0156 28.4962 40.3764C28.2945 40.7344 28.0346 41.044 27.7164 41.3054C27.4011 41.5639 27.0403 41.7642 26.634 41.9062C26.2278 42.0483 25.7846 42.1193 25.3045 42.1193C24.5488 42.1193 23.8755 41.9403 23.2846 41.5824C22.6937 41.2216 22.2278 40.706 21.8868 40.0355C21.5488 39.3651 21.3797 38.5653 21.3797 37.6364C21.3797 36.7045 21.5502 35.9048 21.8911 35.2372C22.232 34.5668 22.6979 34.0526 23.2888 33.6946C23.8797 33.3338 24.5516 33.1534 25.3045 33.1534C25.7675 33.1534 26.1993 33.2202 26.5999 33.3537C27.0033 33.4844 27.3655 33.6776 27.6866 33.9332C28.0076 34.1861 28.2732 34.4957 28.4834 34.8622C28.6937 35.2259 28.8357 35.642 28.9096 36.1108ZM32.96 42.1321C32.3464 42.1321 31.8109 41.9915 31.3535 41.7102C30.8961 41.429 30.541 41.0355 30.2882 40.5298C30.0353 40.0241 29.9089 39.4332 29.9089 38.7571C29.9089 38.0781 30.0353 37.4844 30.2882 36.9759C30.541 36.4673 30.8961 36.0724 31.3535 35.7912C31.8109 35.5099 32.3464 35.3693 32.96 35.3693C33.5737 35.3693 34.1092 35.5099 34.5666 35.7912C35.024 36.0724 35.3791 36.4673 35.6319 36.9759C35.8848 37.4844 36.0112 38.0781 36.0112 38.7571C36.0112 39.4332 35.8848 40.0241 35.6319 40.5298C35.3791 41.0355 35.024 41.429 34.5666 41.7102C34.1092 41.9915 33.5737 42.1321 32.96 42.1321ZM32.9643 41.0625C33.362 41.0625 33.6916 40.9574 33.9529 40.7472C34.2143 40.5369 34.4075 40.2571 34.5325 39.9077C34.6603 39.5582 34.7242 39.1733 34.7242 38.7528C34.7242 38.3352 34.6603 37.9517 34.5325 37.6023C34.4075 37.25 34.2143 36.9673 33.9529 36.7543C33.6916 36.5412 33.362 36.4347 32.9643 36.4347C32.5637 36.4347 32.2314 36.5412 31.9671 36.7543C31.7058 36.9673 31.5112 37.25 31.3833 37.6023C31.2583 37.9517 31.1958 38.3352 31.1958 38.7528C31.1958 39.1733 31.2583 39.5582 31.3833 39.9077C31.5112 40.2571 31.7058 40.5369 31.9671 40.7472C32.2314 40.9574 32.5637 41.0625 32.9643 41.0625ZM41.3997 39.2855V35.4545H42.6781V42H41.4253V40.8665H41.3571C41.2065 41.2159 40.9651 41.5071 40.6327 41.7401C40.3031 41.9702 39.8926 42.0852 39.4011 42.0852C38.9807 42.0852 38.6085 41.9929 38.2847 41.8082C37.9636 41.6207 37.7108 41.3438 37.5261 40.9773C37.3443 40.6108 37.2534 40.1577 37.2534 39.6179V35.4545H38.5276V39.4645C38.5276 39.9105 38.6511 40.2656 38.8983 40.5298C39.1455 40.794 39.4665 40.9261 39.8614 40.9261C40.1 40.9261 40.3372 40.8665 40.573 40.7472C40.8116 40.6278 41.0091 40.4474 41.1653 40.206C41.3244 39.9645 41.4026 39.6577 41.3997 39.2855ZM44.2101 42V35.4545H45.4417V36.4943H45.5098C45.6292 36.142 45.8394 35.8651 46.1405 35.6634C46.4445 35.4588 46.7883 35.3565 47.1718 35.3565C47.2513 35.3565 47.3451 35.3594 47.453 35.3651C47.5638 35.3707 47.6505 35.3778 47.713 35.3864V36.6051C47.6618 36.5909 47.5709 36.5753 47.4402 36.5582C47.3096 36.5384 47.1789 36.5284 47.0482 36.5284C46.7471 36.5284 46.4786 36.5923 46.2428 36.7202C46.0098 36.8452 45.8252 37.0199 45.6888 37.2443C45.5525 37.4659 45.4843 37.7187 45.4843 38.0028V42H44.2101ZM53.5404 37.0526L52.3856 37.2571C52.3373 37.1094 52.2606 36.9687 52.1555 36.8352C52.0532 36.7017 51.914 36.5923 51.7379 36.5071C51.5617 36.4219 51.3416 36.3793 51.0774 36.3793C50.7166 36.3793 50.4154 36.4602 50.174 36.6222C49.9325 36.7812 49.8117 36.9872 49.8117 37.2401C49.8117 37.4588 49.8927 37.6349 50.0546 37.7685C50.2166 37.902 50.4779 38.0114 50.8387 38.0966L51.8785 38.3352C52.4808 38.4744 52.9296 38.6889 53.2251 38.9787C53.5205 39.2685 53.6683 39.6449 53.6683 40.108C53.6683 40.5 53.5546 40.8494 53.3274 41.1562C53.1029 41.4602 52.789 41.6989 52.3856 41.8722C51.985 42.0455 51.5205 42.1321 50.9921 42.1321C50.2592 42.1321 49.6612 41.9759 49.1981 41.6634C48.735 41.348 48.4509 40.9006 48.3458 40.321L49.5774 40.1335C49.6541 40.4545 49.8117 40.6974 50.0504 40.8622C50.289 41.0241 50.6001 41.1051 50.9836 41.1051C51.4012 41.1051 51.735 41.0185 51.985 40.8452C52.235 40.669 52.36 40.4545 52.36 40.2017C52.36 39.9972 52.2833 39.8253 52.1299 39.6861C51.9793 39.5469 51.7478 39.4418 51.4353 39.3707L50.3274 39.1278C49.7166 38.9886 49.2649 38.767 48.9722 38.4631C48.6825 38.1591 48.5376 37.7741 48.5376 37.3082C48.5376 36.9219 48.6455 36.5838 48.8615 36.294C49.0774 36.0043 49.3757 35.7784 49.7563 35.6165C50.137 35.4517 50.5731 35.3693 51.0646 35.3693C51.772 35.3693 52.3288 35.5227 52.735 35.8295C53.1413 36.1335 53.4097 36.5412 53.5404 37.0526ZM57.7102 42.1321C57.0653 42.1321 56.5099 41.9943 56.044 41.7188C55.581 41.4403 55.223 41.0497 54.9702 40.5469C54.7202 40.0412 54.5952 39.4489 54.5952 38.7699C54.5952 38.0994 54.7202 37.5085 54.9702 36.9972C55.223 36.4858 55.5753 36.0866 56.027 35.7997C56.4815 35.5128 57.0128 35.3693 57.6207 35.3693C57.99 35.3693 58.348 35.4304 58.6946 35.5526C59.0412 35.6747 59.3523 35.8665 59.6278 36.1278C59.9034 36.3892 60.1207 36.7287 60.2798 37.1463C60.4389 37.5611 60.5185 38.0653 60.5185 38.6591V39.1108H55.3153V38.1562H59.2699C59.2699 37.821 59.2017 37.5241 59.0653 37.2656C58.929 37.0043 58.7372 36.7983 58.49 36.6477C58.2457 36.4972 57.9588 36.4219 57.6292 36.4219C57.2713 36.4219 56.9588 36.5099 56.6917 36.6861C56.4275 36.8594 56.223 37.0866 56.0781 37.3679C55.9361 37.6463 55.865 37.9489 55.865 38.2756V39.0213C55.865 39.4588 55.9417 39.831 56.0952 40.1378C56.2514 40.4446 56.4687 40.679 56.7471 40.8409C57.0256 41 57.3508 41.0795 57.723 41.0795C57.9645 41.0795 58.1846 41.0455 58.3835 40.9773C58.5824 40.9062 58.7542 40.8011 58.8991 40.6619C59.044 40.5227 59.1548 40.3509 59.2315 40.1463L60.4375 40.3636C60.3409 40.7187 60.1676 41.0298 59.9176 41.2969C59.6704 41.5611 59.3594 41.767 58.9844 41.9148C58.6122 42.0597 58.1875 42.1321 57.7102 42.1321Z" fill="#A9A9A9"/>
<path d="M21.1667 4.66666H28.1667V11.6667H21.1667V4.66666ZM32.8333 4.66666H39.8333V11.6667H32.8333V4.66666ZM21.1667 16.3333H28.1667V23.3333H21.1667V16.3333ZM32.8333 19.8333C32.8333 20.7616 33.2021 21.6518 33.8585 22.3082C34.5148 22.9646 35.4051 23.3333 36.3333 23.3333C37.2616 23.3333 38.1518 22.9646 38.8082 22.3082C39.4646 21.6518 39.8333 20.7616 39.8333 19.8333C39.8333 18.9051 39.4646 18.0148 38.8082 17.3584C38.1518 16.7021 37.2616 16.3333 36.3333 16.3333C35.4051 16.3333 34.5148 16.7021 33.8585 17.3584C33.2021 18.0148 32.8333 18.9051 32.8333 19.8333Z" stroke="#A9A9A9" stroke-width="2" stroke-linecap="round" stroke-linejoin="round"/>
</svg>
